<?plantuml 1.2026.2beta3?><svg xmlns="http://www.w3.org/2000/svg" xmlns:xlink="http://www.w3.org/1999/xlink" contentStyleType="text/css" data-diagram-type="CLASS" height="1370px" preserveAspectRatio="none" style="width:1741px;height:1370px;background:#1B1B1B;" version="1.1" viewBox="0 0 1741 1370" width="1741px" zoomAndPan="magnify"><defs/><g><rect fill="#1B1B1B" height="1370" style="stroke:none;stroke-width:1;" width="1741" x="0" y="0"/><!--class Produto--><g class="entity" data-qualified-name="Produto" data-source-line="2" id="ent0002"><rect fill="#313139" height="210.9688" rx="2.5" ry="2.5" style="stroke:#E7E7E7;stroke-width:0.5;" width="141.3906" x="545.33" y="994.91"/><ellipse cx="584.9956" cy="1010.91" fill="#2E5233" rx="11" ry="11" style="stroke:#E7E7E7;stroke-width:1;"/><path d="M587.9644,1016.5506 Q587.3863,1016.8475 586.7456,1016.9881 Q586.105,1017.1444 585.4019,1017.1444 Q582.9019,1017.1444 581.5738,1015.5038 Q580.2613,1013.8475 580.2613,1010.7225 Q580.2613,1007.5975 581.5738,1005.9413 Q582.9019,1004.285 585.4019,1004.285 Q586.105,1004.285 586.7456,1004.4413 Q587.4019,1004.5975 587.9644,1004.8944 L587.9644,1007.6131 Q587.3394,1007.035 586.7456,1006.7694 Q586.1519,1006.4881 585.5269,1006.4881 Q584.1831,1006.4881 583.4956,1007.5663 Q582.8081,1008.6288 582.8081,1010.7225 Q582.8081,1012.8163 583.4956,1013.8944 Q584.1831,1014.9569 585.5269,1014.9569 Q586.1519,1014.9569 586.7456,1014.6913 Q587.3394,1014.41 587.9644,1013.8319 L587.9644,1016.5506 Z " fill="#FFFFFF"/><text fill="#FFFFFF" font-family="sans-serif" font-size="14" lengthAdjust="spacing" textLength="54.5781" x="604.4769" y="1015.7567">Produto</text><line style="stroke:#E7E7E7;stroke-width:0.5;" x1="546.33" x2="685.7206" y1="1026.91" y2="1026.91"/><text fill="#FFFFFF" font-family="sans-serif" font-size="14" lengthAdjust="spacing" textLength="51.3516" x="551.33" y="1043.9051">Long id</text><text fill="#FFFFFF" font-family="sans-serif" font-size="14" lengthAdjust="spacing" textLength="85.9209" x="551.33" y="1060.202">String nome</text><text fill="#FFFFFF" font-family="sans-serif" font-size="14" lengthAdjust="spacing" textLength="123.4365" x="551.33" y="1076.4989">BigDecimal preco</text><text fill="#FFFFFF" font-family="sans-serif" font-size="14" lengthAdjust="spacing" textLength="113.21" x="551.33" y="1092.7957">String descricao</text><text fill="#FFFFFF" font-family="sans-serif" font-size="14" lengthAdjust="spacing" textLength="95.2314" x="551.33" y="1109.0926">boolean ativo</text><text fill="#FFFFFF" font-family="sans-serif" font-size="14" lengthAdjust="spacing" textLength="117.6465" x="551.33" y="1125.3895">Long categoriaId</text><text fill="#FFFFFF" font-family="sans-serif" font-size="14" lengthAdjust="spacing" textLength="111.1455" x="551.33" y="1141.6864">Integer estoque</text><line style="stroke:#E7E7E7;stroke-width:0.5;" x1="546.33" x2="685.7206" y1="1148.9881" y2="1148.9881"/><g data-visibility-modifier="PUBLIC_METHOD"><ellipse cx="556.33" cy="1162.6366" fill="#84BE84" rx="3" ry="3" style="stroke:#038048;stroke-width:1;"/></g><text fill="#FFFFFF" font-family="sans-serif" font-size="14" lengthAdjust="spacing" textLength="46.9287" x="565.33" y="1165.9832">getId()</text><g data-visibility-modifier="PUBLIC_METHOD"><ellipse cx="556.33" cy="1178.9334" fill="#84BE84" rx="3" ry="3" style="stroke:#038048;stroke-width:1;"/></g><text fill="#FFFFFF" font-family="sans-serif" font-size="14" lengthAdjust="spacing" textLength="75.2021" x="565.33" y="1182.2801">getNome()</text><g data-visibility-modifier="PUBLIC_METHOD"><ellipse cx="556.33" cy="1195.2303" fill="#84BE84" rx="3" ry="3" style="stroke:#038048;stroke-width:1;"/></g><text fill="#FFFFFF" font-family="sans-serif" font-size="14" lengthAdjust="spacing" textLength="115.3906" x="565.33" y="1198.577">setNome(String)</text></g><!--class ProdutoRemovido--><g class="entity" data-qualified-name="ProdutoRemovido" data-source-line="15" id="ent0003"><rect fill="#313139" height="129.4844" rx="2.5" ry="2.5" style="stroke:#E7E7E7;stroke-width:0.5;" width="218.0557" x="7" y="788.43"/><ellipse cx="49.588" cy="804.43" fill="#2E5233" rx="11" ry="11" style="stroke:#E7E7E7;stroke-width:1;"/><path d="M52.5567,810.0706 Q51.9786,810.3675 51.338,810.5081 Q50.6974,810.6644 49.9942,810.6644 Q47.4942,810.6644 46.1661,809.0238 Q44.8536,807.3675 44.8536,804.2425 Q44.8536,801.1175 46.1661,799.4613 Q47.4942,797.805 49.9942,797.805 Q50.6974,797.805 51.338,797.9613 Q51.9942,798.1175 52.5567,798.4144 L52.5567,801.1331 Q51.9317,800.555 51.338,800.2894 Q50.7442,800.0081 50.1192,800.0081 Q48.7755,800.0081 48.088,801.0863 Q47.4005,802.1488 47.4005,804.2425 Q47.4005,806.3363 48.088,807.4144 Q48.7755,808.4769 50.1192,808.4769 Q50.7442,808.4769 51.338,808.2113 Q51.9317,807.93 52.5567,807.3519 L52.5567,810.0706 Z " fill="#FFFFFF"/><text fill="#FFFFFF" font-family="sans-serif" font-size="14" lengthAdjust="spacing" textLength="124.749" x="69.7187" y="809.2767">ProdutoRemovido</text><line style="stroke:#E7E7E7;stroke-width:0.5;" x1="8" x2="224.0557" y1="820.43" y2="820.43"/><text fill="#FFFFFF" font-family="sans-serif" font-size="14" lengthAdjust="spacing" textLength="51.3516" x="13" y="837.4251">Long id</text><text fill="#FFFFFF" font-family="sans-serif" font-size="14" lengthAdjust="spacing" textLength="106.6133" x="13" y="853.722">Long produtoId</text><text fill="#FFFFFF" font-family="sans-serif" font-size="14" lengthAdjust="spacing" textLength="140.499" x="13" y="870.0189">String nomeProduto</text><text fill="#FFFFFF" font-family="sans-serif" font-size="14" lengthAdjust="spacing" textLength="94.6641" x="13" y="886.3157">String motivo</text><text fill="#FFFFFF" font-family="sans-serif" font-size="14" lengthAdjust="spacing" textLength="206.0557" x="13" y="902.6126">LocalDateTime dataRemocao</text><line style="stroke:#E7E7E7;stroke-width:0.5;" x1="8" x2="224.0557" y1="909.9144" y2="909.9144"/></g><!--class Categoria--><g class="entity" data-qualified-name="Categoria" data-source-line="23" id="ent0004"><rect fill="#313139" height="96.8906" rx="2.5" ry="2.5" style="stroke:#E7E7E7;stroke-width:0.5;" width="125.21" x="553.42" y="1266.88"/><ellipse cx="579.7043" cy="1282.88" fill="#2E5233" rx="11" ry="11" style="stroke:#E7E7E7;stroke-width:1;"/><path d="M582.673,1288.5206 Q582.0949,1288.8175 581.4543,1288.9581 Q580.8137,1289.1144 580.1105,1289.1144 Q577.6105,1289.1144 576.2824,1287.4737 Q574.9699,1285.8175 574.9699,1282.6925 Q574.9699,1279.5675 576.2824,1277.9112 Q577.6105,1276.255 580.1105,1276.255 Q580.8137,1276.255 581.4543,1276.4112 Q582.1105,1276.5675 582.673,1276.8644 L582.673,1279.5831 Q582.048,1279.005 581.4543,1278.7394 Q580.8605,1278.4581 580.2355,1278.4581 Q578.8918,1278.4581 578.2043,1279.5362 Q577.5168,1280.5987 577.5168,1282.6925 Q577.5168,1284.7862 578.2043,1285.8644 Q578.8918,1286.9269 580.2355,1286.9269 Q580.8605,1286.9269 581.4543,1286.6612 Q582.048,1286.38 582.673,1285.8019 L582.673,1288.5206 Z " fill="#FFFFFF"/><text fill="#FFFFFF" font-family="sans-serif" font-size="14" lengthAdjust="spacing" textLength="68.1338" x="596.2119" y="1287.7267">Categoria</text><line style="stroke:#E7E7E7;stroke-width:0.5;" x1="554.42" x2="677.63" y1="1298.88" y2="1298.88"/><text fill="#FFFFFF" font-family="sans-serif" font-size="14" lengthAdjust="spacing" textLength="51.3516" x="559.42" y="1315.8751">Long id</text><text fill="#FFFFFF" font-family="sans-serif" font-size="14" lengthAdjust="spacing" textLength="85.9209" x="559.42" y="1332.172">String nome</text><text fill="#FFFFFF" font-family="sans-serif" font-size="14" lengthAdjust="spacing" textLength="113.21" x="559.42" y="1348.4689">String descricao</text><line style="stroke:#E7E7E7;stroke-width:0.5;" x1="554.42" x2="677.63" y1="1355.7706" y2="1355.7706"/></g><!--class Usuario--><g class="entity" data-qualified-name="Usuario" data-source-line="29" id="ent0005"><rect fill="#313139" height="145.7813" rx="2.5" ry="2.5" style="stroke:#E7E7E7;stroke-width:0.5;" width="128.4707" x="804.79" y="15.15"/><ellipse cx="839.26" cy="31.15" fill="#2E5233" rx="11" ry="11" style="stroke:#E7E7E7;stroke-width:1;"/><path d="M842.2287,36.7906 Q841.6506,37.0875 841.01,37.2281 Q840.3693,37.3844 839.6662,37.3844 Q837.1662,37.3844 835.8381,35.7438 Q834.5256,34.0875 834.5256,30.9625 Q834.5256,27.8375 835.8381,26.1813 Q837.1662,24.525 839.6662,24.525 Q840.3693,24.525 841.01,24.6813 Q841.6662,24.8375 842.2287,25.1344 L842.2287,27.8531 Q841.6037,27.275 841.01,27.0094 Q840.4162,26.7281 839.7912,26.7281 Q838.4475,26.7281 837.76,27.8063 Q837.0725,28.8688 837.0725,30.9625 Q837.0725,33.0563 837.76,34.1344 Q838.4475,35.1969 839.7912,35.1969 Q840.4162,35.1969 841.01,34.9313 Q841.6037,34.65 842.2287,34.0719 L842.2287,36.7906 Z " fill="#FFFFFF"/><text fill="#FFFFFF" font-family="sans-serif" font-size="14" lengthAdjust="spacing" textLength="53.2041" x="857.5866" y="35.9967">Usuario</text><line style="stroke:#E7E7E7;stroke-width:0.5;" x1="805.79" x2="932.2607" y1="47.15" y2="47.15"/><text fill="#FFFFFF" font-family="sans-serif" font-size="14" lengthAdjust="spacing" textLength="51.3516" x="810.79" y="64.1451">Long id</text><text fill="#FFFFFF" font-family="sans-serif" font-size="14" lengthAdjust="spacing" textLength="116.4707" x="810.79" y="80.442">String username</text><text fill="#FFFFFF" font-family="sans-serif" font-size="14" lengthAdjust="spacing" textLength="88.4639" x="810.79" y="96.7389">String senha</text><text fill="#FFFFFF" font-family="sans-serif" font-size="14" lengthAdjust="spacing" textLength="85.9209" x="810.79" y="113.0357">String nome</text><text fill="#FFFFFF" font-family="sans-serif" font-size="14" lengthAdjust="spacing" textLength="84.8408" x="810.79" y="129.3326">String email</text><text fill="#FFFFFF" font-family="sans-serif" font-size="14" lengthAdjust="spacing" textLength="115.8145" x="810.79" y="145.6295">Set&lt;Role&gt; roles</text><line style="stroke:#E7E7E7;stroke-width:0.5;" x1="805.79" x2="932.2607" y1="152.9313" y2="152.9313"/></g><!--class Role--><g class="entity" data-qualified-name="Role" data-source-line="38" id="ent0006"><rect fill="#313139" height="80.5938" rx="2.5" ry="2.5" style="stroke:#E7E7E7;stroke-width:0.5;" width="97.9209" x="820.07" y="262.68"/><ellipse cx="850.8763" cy="278.68" fill="#2E5233" rx="11" ry="11" style="stroke:#E7E7E7;stroke-width:1;"/><path d="M853.845,284.3206 Q853.2669,284.6175 852.6263,284.7581 Q851.9856,284.9144 851.2825,284.9144 Q848.7825,284.9144 847.4544,283.2738 Q846.1419,281.6175 846.1419,278.4925 Q846.1419,275.3675 847.4544,273.7113 Q848.7825,272.055 851.2825,272.055 Q851.9856,272.055 852.6263,272.2113 Q853.2825,272.3675 853.845,272.6644 L853.845,275.3831 Q853.22,274.805 852.6263,274.5394 Q852.0325,274.2581 851.4075,274.2581 Q850.0638,274.2581 849.3763,275.3363 Q848.6888,276.3988 848.6888,278.4925 Q848.6888,280.5863 849.3763,281.6644 Q850.0638,282.7269 851.4075,282.7269 Q852.0325,282.7269 852.6263,282.4613 Q853.22,282.18 853.845,281.6019 L853.845,284.3206 Z " fill="#FFFFFF"/><text fill="#FFFFFF" font-family="sans-serif" font-size="14" lengthAdjust="spacing" textLength="30.7959" x="868.3888" y="283.5267">Role</text><line style="stroke:#E7E7E7;stroke-width:0.5;" x1="821.07" x2="916.9909" y1="294.68" y2="294.68"/><text fill="#FFFFFF" font-family="sans-serif" font-size="14" lengthAdjust="spacing" textLength="51.3516" x="826.07" y="311.6751">Long id</text><text fill="#FFFFFF" font-family="sans-serif" font-size="14" lengthAdjust="spacing" textLength="85.9209" x="826.07" y="327.972">String nome</text><line style="stroke:#E7E7E7;stroke-width:0.5;" x1="821.07" x2="916.9909" y1="335.2738" y2="335.2738"/></g><!--class Cliente--><g class="entity" data-qualified-name="Cliente" data-source-line="43" id="ent0007"><rect fill="#313139" height="129.4844" rx="2.5" ry="2.5" style="stroke:#E7E7E7;stroke-width:0.5;" width="203.1465" x="510.45" y="238.23"/><ellipse cx="583.2015" cy="254.23" fill="#2E5233" rx="11" ry="11" style="stroke:#E7E7E7;stroke-width:1;"/><path d="M586.1702,259.8706 Q585.5921,260.1675 584.9515,260.3081 Q584.3108,260.4644 583.6077,260.4644 Q581.1077,260.4644 579.7796,258.8238 Q578.4671,257.1675 578.4671,254.0425 Q578.4671,250.9175 579.7796,249.2613 Q581.1077,247.605 583.6077,247.605 Q584.3108,247.605 584.9515,247.7613 Q585.6077,247.9175 586.1702,248.2144 L586.1702,250.9331 Q585.5452,250.355 584.9515,250.0894 Q584.3577,249.8081 583.7327,249.8081 Q582.389,249.8081 581.7015,250.8863 Q581.014,251.9488 581.014,254.0425 Q581.014,256.1363 581.7015,257.2144 Q582.389,258.2769 583.7327,258.2769 Q584.3577,258.2769 584.9515,258.0113 Q585.5452,257.73 586.1702,257.1519 L586.1702,259.8706 Z " fill="#FFFFFF"/><text fill="#FFFFFF" font-family="sans-serif" font-size="14" lengthAdjust="spacing" textLength="49.1436" x="603.7015" y="259.0767">Cliente</text><line style="stroke:#E7E7E7;stroke-width:0.5;" x1="511.45" x2="712.5965" y1="270.23" y2="270.23"/><text fill="#FFFFFF" font-family="sans-serif" font-size="14" lengthAdjust="spacing" textLength="51.3516" x="516.45" y="287.2251">Long id</text><text fill="#FFFFFF" font-family="sans-serif" font-size="14" lengthAdjust="spacing" textLength="85.9209" x="516.45" y="303.522">String nome</text><text fill="#FFFFFF" font-family="sans-serif" font-size="14" lengthAdjust="spacing" textLength="84.8408" x="516.45" y="319.8189">String email</text><text fill="#FFFFFF" font-family="sans-serif" font-size="14" lengthAdjust="spacing" textLength="103.8174" x="516.45" y="336.1157">String telefone</text><text fill="#FFFFFF" font-family="sans-serif" font-size="14" lengthAdjust="spacing" textLength="191.1465" x="516.45" y="352.4126">List&lt;Endereco&gt; enderecos</text><line style="stroke:#E7E7E7;stroke-width:0.5;" x1="511.45" x2="712.5965" y1="359.7144" y2="359.7144"/></g><!--class Endereco--><g class="entity" data-qualified-name="Endereco" data-source-line="51" id="ent0008"><rect fill="#313139" height="178.375" rx="2.5" ry="2.5" style="stroke:#E7E7E7;stroke-width:0.5;" width="154.7002" x="330.68" y="549.05"/><ellipse cx="371.2623" cy="565.05" fill="#2E5233" rx="11" ry="11" style="stroke:#E7E7E7;stroke-width:1;"/><path d="M374.2311,570.6906 Q373.6529,570.9875 373.0123,571.1281 Q372.3717,571.2844 371.6686,571.2844 Q369.1686,571.2844 367.8404,569.6438 Q366.5279,567.9875 366.5279,564.8625 Q366.5279,561.7375 367.8404,560.0813 Q369.1686,558.425 371.6686,558.425 Q372.3717,558.425 373.0123,558.5813 Q373.6686,558.7375 374.2311,559.0344 L374.2311,561.7531 Q373.6061,561.175 373.0123,560.9094 Q372.4186,560.6281 371.7936,560.6281 Q370.4498,560.6281 369.7623,561.7063 Q369.0748,562.7688 369.0748,564.8625 Q369.0748,566.9563 369.7623,568.0344 Q370.4498,569.0969 371.7936,569.0969 Q372.4186,569.0969 373.0123,568.8313 Q373.6061,568.55 374.2311,567.9719 L374.2311,570.6906 Z " fill="#FFFFFF"/><text fill="#FFFFFF" font-family="sans-serif" font-size="14" lengthAdjust="spacing" textLength="65.8506" x="390.9473" y="569.8967">Endereco</text><line style="stroke:#E7E7E7;stroke-width:0.5;" x1="331.68" x2="484.3802" y1="581.05" y2="581.05"/><text fill="#FFFFFF" font-family="sans-serif" font-size="14" lengthAdjust="spacing" textLength="51.3516" x="336.68" y="598.0451">Long id</text><text fill="#FFFFFF" font-family="sans-serif" font-size="14" lengthAdjust="spacing" textLength="69.4395" x="336.68" y="614.342">String rua</text><text fill="#FFFFFF" font-family="sans-serif" font-size="14" lengthAdjust="spacing" textLength="100.5498" x="336.68" y="630.6389">String numero</text><text fill="#FFFFFF" font-family="sans-serif" font-size="14" lengthAdjust="spacing" textLength="142.7002" x="336.68" y="646.9357">String complemento</text><text fill="#FFFFFF" font-family="sans-serif" font-size="14" lengthAdjust="spacing" textLength="87.6641" x="336.68" y="663.2326">String bairro</text><text fill="#FFFFFF" font-family="sans-serif" font-size="14" lengthAdjust="spacing" textLength="92.7842" x="336.68" y="679.5295">String cidade</text><text fill="#FFFFFF" font-family="sans-serif" font-size="14" lengthAdjust="spacing" textLength="71.4287" x="336.68" y="695.8264">String cep</text><text fill="#FFFFFF" font-family="sans-serif" font-size="14" lengthAdjust="spacing" textLength="93.6592" x="336.68" y="712.1232">String estado</text><line style="stroke:#E7E7E7;stroke-width:0.5;" x1="331.68" x2="484.3802" y1="719.425" y2="719.425"/></g><!--class Carrinho--><g class="entity" data-qualified-name="Carrinho" data-source-line="62" id="ent0009"><rect fill="#313139" height="113.1875" rx="2.5" ry="2.5" style="stroke:#E7E7E7;stroke-width:0.5;" width="190.4795" x="520.79" y="581.64"/><ellipse cx="581.7461" cy="597.64" fill="#2E5233" rx="11" ry="11" style="stroke:#E7E7E7;stroke-width:1;"/><path d="M584.7148,603.2806 Q584.1367,603.5775 583.4961,603.7181 Q582.8554,603.8744 582.1523,603.8744 Q579.6523,603.8744 578.3242,602.2338 Q577.0117,600.5775 577.0117,597.4525 Q577.0117,594.3275 578.3242,592.6713 Q579.6523,591.015 582.1523,591.015 Q582.8554,591.015 583.4961,591.1713 Q584.1523,591.3275 584.7148,591.6244 L584.7148,594.3431 Q584.0898,593.765 583.4961,593.4994 Q582.9023,593.2181 582.2773,593.2181 Q580.9336,593.2181 580.2461,594.2963 Q579.5586,595.3588 579.5586,597.4525 Q579.5586,599.5463 580.2461,600.6244 Q580.9336,601.6869 582.2773,601.6869 Q582.9023,601.6869 583.4961,601.4213 Q584.0898,601.14 584.7148,600.5619 L584.7148,603.2806 Z " fill="#FFFFFF"/><text fill="#FFFFFF" font-family="sans-serif" font-size="14" lengthAdjust="spacing" textLength="60.0674" x="602.2461" y="602.4867">Carrinho</text><line style="stroke:#E7E7E7;stroke-width:0.5;" x1="521.79" x2="710.2695" y1="613.64" y2="613.64"/><text fill="#FFFFFF" font-family="sans-serif" font-size="14" lengthAdjust="spacing" textLength="51.3516" x="526.79" y="630.6351">Long id</text><text fill="#FFFFFF" font-family="sans-serif" font-size="14" lengthAdjust="spacing" textLength="100.6592" x="526.79" y="646.932">Cliente cliente</text><text fill="#FFFFFF" font-family="sans-serif" font-size="14" lengthAdjust="spacing" textLength="178.4795" x="526.79" y="663.2289">List&lt;ItemCarrinho&gt; itens</text><line style="stroke:#E7E7E7;stroke-width:0.5;" x1="521.79" x2="710.2695" y1="670.5306" y2="670.5306"/><text fill="#FFFFFF" font-family="sans-serif" font-size="14" lengthAdjust="spacing" textLength="126.8545" x="526.79" y="687.5257">BigDecimal total()</text></g><!--class ItemCarrinho--><g class="entity" data-qualified-name="ItemCarrinho" data-source-line="69" id="ent0010"><rect fill="#313139" height="113.1875" rx="2.5" ry="2.5" style="stroke:#E7E7E7;stroke-width:0.5;" width="163.9082" x="534.07" y="796.57"/><ellipse cx="567.0573" cy="812.57" fill="#2E5233" rx="11" ry="11" style="stroke:#E7E7E7;stroke-width:1;"/><path d="M570.026,818.2106 Q569.4479,818.5075 568.8073,818.6481 Q568.1666,818.8044 567.4635,818.8044 Q564.9635,818.8044 563.6354,817.1637 Q562.3229,815.5075 562.3229,812.3825 Q562.3229,809.2575 563.6354,807.6012 Q564.9635,805.945 567.4635,805.945 Q568.1666,805.945 568.8073,806.1012 Q569.4635,806.2575 570.026,806.5544 L570.026,809.2731 Q569.401,808.695 568.8073,808.4294 Q568.2135,808.1481 567.5885,808.1481 Q566.2448,808.1481 565.5573,809.2262 Q564.8698,810.2887 564.8698,812.3825 Q564.8698,814.4762 565.5573,815.5544 Q566.2448,816.6169 567.5885,816.6169 Q568.2135,816.6169 568.8073,816.3512 Q569.401,816.07 570.026,815.4919 L570.026,818.2106 Z " fill="#FFFFFF"/><text fill="#FFFFFF" font-family="sans-serif" font-size="14" lengthAdjust="spacing" textLength="91.9365" x="585.0544" y="817.4167">ItemCarrinho</text><line style="stroke:#E7E7E7;stroke-width:0.5;" x1="535.07" x2="696.9782" y1="828.57" y2="828.57"/><text fill="#FFFFFF" font-family="sans-serif" font-size="14" lengthAdjust="spacing" textLength="51.3516" x="540.07" y="845.5651">Long id</text><text fill="#FFFFFF" font-family="sans-serif" font-size="14" lengthAdjust="spacing" textLength="114.0508" x="540.07" y="861.862">Produto produto</text><text fill="#FFFFFF" font-family="sans-serif" font-size="14" lengthAdjust="spacing" textLength="134.3672" x="540.07" y="878.1589">Integer quantidade</text><line style="stroke:#E7E7E7;stroke-width:0.5;" x1="535.07" x2="696.9782" y1="885.4606" y2="885.4606"/><text fill="#FFFFFF" font-family="sans-serif" font-size="14" lengthAdjust="spacing" textLength="151.9082" x="540.07" y="902.4557">BigDecimal subtotal()</text></g><!--class Pedido--><g class="entity" data-qualified-name="Pedido" data-source-line="76" id="ent0011"><rect fill="#313139" height="162.0781" rx="2.5" ry="2.5" style="stroke:#E7E7E7;stroke-width:0.5;" width="216.2988" x="248.88" y="7"/><ellipse cx="329.1373" cy="23" fill="#2E5233" rx="11" ry="11" style="stroke:#E7E7E7;stroke-width:1;"/><path d="M332.1061,28.6406 Q331.5279,28.9375 330.8873,29.0781 Q330.2467,29.2344 329.5436,29.2344 Q327.0436,29.2344 325.7154,27.5938 Q324.4029,25.9375 324.4029,22.8125 Q324.4029,19.6875 325.7154,18.0313 Q327.0436,16.375 329.5436,16.375 Q330.2467,16.375 330.8873,16.5313 Q331.5436,16.6875 332.1061,16.9844 L332.1061,19.7031 Q331.4811,19.125 330.8873,18.8594 Q330.2936,18.5781 329.6686,18.5781 Q328.3248,18.5781 327.6373,19.6563 Q326.9498,20.7188 326.9498,22.8125 Q326.9498,24.9063 327.6373,25.9844 Q328.3248,27.0469 329.6686,27.0469 Q330.2936,27.0469 330.8873,26.7813 Q331.4811,26.5 332.1061,25.9219 L332.1061,28.6406 Z " fill="#FFFFFF"/><text fill="#FFFFFF" font-family="sans-serif" font-size="14" lengthAdjust="spacing" textLength="47.2842" x="349.6373" y="27.8467">Pedido</text><line style="stroke:#E7E7E7;stroke-width:0.5;" x1="249.88" x2="464.1788" y1="39" y2="39"/><text fill="#FFFFFF" font-family="sans-serif" font-size="14" lengthAdjust="spacing" textLength="51.3516" x="254.88" y="55.9951">Long id</text><text fill="#FFFFFF" font-family="sans-serif" font-size="14" lengthAdjust="spacing" textLength="100.6592" x="254.88" y="72.292">Cliente cliente</text><text fill="#FFFFFF" font-family="sans-serif" font-size="14" lengthAdjust="spacing" textLength="165.6963" x="254.88" y="88.5889">List&lt;ItemPedido&gt; itens</text><text fill="#FFFFFF" font-family="sans-serif" font-size="14" lengthAdjust="spacing" textLength="115.9307" x="254.88" y="104.8857">BigDecimal total</text><text fill="#FFFFFF" font-family="sans-serif" font-size="14" lengthAdjust="spacing" textLength="139.3643" x="254.88" y="121.1826">PedidoStatus status</text><text fill="#FFFFFF" font-family="sans-serif" font-size="14" lengthAdjust="spacing" textLength="174.9932" x="254.88" y="137.4795">LocalDateTime criadoEm</text><text fill="#FFFFFF" font-family="sans-serif" font-size="14" lengthAdjust="spacing" textLength="204.2988" x="254.88" y="153.7764">LocalDateTime atualizadoEm</text><line style="stroke:#E7E7E7;stroke-width:0.5;" x1="249.88" x2="464.1788" y1="161.0781" y2="161.0781"/></g><!--class PedidoStatus--><g class="entity" data-qualified-name="PedidoStatus" data-source-line="86" id="ent0012"><rect fill="#313139" height="64.2969" rx="2.5" ry="2.5" style="stroke:#E7E7E7;stroke-width:0.5;" width="573.1689" x="968.44" y="55.89"/><ellipse cx="1204.8267" cy="71.89" fill="#852D19" rx="11" ry="11" style="stroke:#E7E7E7;stroke-width:1;"/><path d="M1208.9361,77.89 L1201.2173,77.89 L1201.2173,65.4994 L1208.9361,65.4994 L1208.9361,67.6556 L1203.6705,67.6556 L1203.6705,70.3275 L1208.4361,70.3275 L1208.4361,72.4837 L1203.6705,72.4837 L1203.6705,75.7337 L1208.9361,75.7337 L1208.9361,77.89 Z " fill="#FFFFFF"/><text fill="#FFFFFF" font-family="sans-serif" font-size="14" lengthAdjust="spacing" textLength="91.8955" x="1225.3267" y="76.7367">PedidoStatus</text><line style="stroke:#E7E7E7;stroke-width:0.5;" x1="969.44" x2="1540.6089" y1="87.89" y2="87.89"/><text fill="#FFFFFF" font-family="sans-serif" font-size="14" lengthAdjust="spacing" textLength="561.1689" x="974.44" y="104.8851">PENDENTE, CONFIRMADO, PREPARANDO, A_CAMINHO, ENTREGUE, CANCELADO</text><line style="stroke:#E7E7E7;stroke-width:0.5;" x1="969.44" x2="1540.6089" y1="112.1869" y2="112.1869"/></g><!--class ItemPedido--><g class="entity" data-qualified-name="ItemPedido" data-source-line="90" id="ent0013"><rect fill="#313139" height="113.1875" rx="2.5" ry="2.5" style="stroke:#E7E7E7;stroke-width:0.5;" width="190.7256" x="95.67" y="405.86"/><ellipse cx="147.2061" cy="421.86" fill="#2E5233" rx="11" ry="11" style="stroke:#E7E7E7;stroke-width:1;"/><path d="M150.1749,427.5006 Q149.5968,427.7975 148.9561,427.9381 Q148.3155,428.0944 147.6124,428.0944 Q145.1124,428.0944 143.7843,426.4538 Q142.4718,424.7975 142.4718,421.6725 Q142.4718,418.5475 143.7843,416.8913 Q145.1124,415.235 147.6124,415.235 Q148.3155,415.235 148.9561,415.3913 Q149.6124,415.5475 150.1749,415.8444 L150.1749,418.5631 Q149.5499,417.985 148.9561,417.7194 Q148.3624,417.4381 147.7374,417.4381 Q146.3936,417.4381 145.7061,418.5163 Q145.0186,419.5788 145.0186,421.6725 Q145.0186,423.7663 145.7061,424.8444 Q146.3936,425.9069 147.7374,425.9069 Q148.3624,425.9069 148.9561,425.6413 Q149.5499,425.36 150.1749,424.7819 L150.1749,427.5006 Z " fill="#FFFFFF"/><text fill="#FFFFFF" font-family="sans-serif" font-size="14" lengthAdjust="spacing" textLength="79.1533" x="167.7061" y="426.7067">ItemPedido</text><line style="stroke:#E7E7E7;stroke-width:0.5;" x1="96.67" x2="285.3956" y1="437.86" y2="437.86"/><text fill="#FFFFFF" font-family="sans-serif" font-size="14" lengthAdjust="spacing" textLength="51.3516" x="101.67" y="454.8551">Long id</text><text fill="#FFFFFF" font-family="sans-serif" font-size="14" lengthAdjust="spacing" textLength="114.0508" x="101.67" y="471.152">Produto produto</text><text fill="#FFFFFF" font-family="sans-serif" font-size="14" lengthAdjust="spacing" textLength="134.3672" x="101.67" y="487.4489">Integer quantidade</text><text fill="#FFFFFF" font-family="sans-serif" font-size="14" lengthAdjust="spacing" textLength="178.7256" x="101.67" y="503.7457">BigDecimal precoUnitario</text><line style="stroke:#E7E7E7;stroke-width:0.5;" x1="96.67" x2="285.3956" y1="511.0475" y2="511.0475"/></g><!--class Pagamento--><g class="entity" data-qualified-name="Pagamento" data-source-line="97" id="ent0014"><rect fill="#313139" height="145.7813" rx="2.5" ry="2.5" style="stroke:#E7E7E7;stroke-width:0.5;" width="178.5371" x="153.76" y="230.08"/><ellipse cx="198.9455" cy="246.08" fill="#2E5233" rx="11" ry="11" style="stroke:#E7E7E7;stroke-width:1;"/><path d="M201.9143,251.7206 Q201.3362,252.0175 200.6955,252.1581 Q200.0549,252.3144 199.3518,252.3144 Q196.8518,252.3144 195.5237,250.6737 Q194.2112,249.0175 194.2112,245.8925 Q194.2112,242.7675 195.5237,241.1112 Q196.8518,239.455 199.3518,239.455 Q200.0549,239.455 200.6955,239.6112 Q201.3518,239.7675 201.9143,240.0644 L201.9143,242.7831 Q201.2893,242.205 200.6955,241.9394 Q200.1018,241.6581 199.4768,241.6581 Q198.133,241.6581 197.4455,242.7362 Q196.758,243.7987 196.758,245.8925 Q196.758,247.9862 197.4455,249.0644 Q198.133,250.1269 199.4768,250.1269 Q200.1018,250.1269 200.6955,249.8612 Q201.2893,249.58 201.9143,249.0019 L201.9143,251.7206 Z " fill="#FFFFFF"/><text fill="#FFFFFF" font-family="sans-serif" font-size="14" lengthAdjust="spacing" textLength="79.666" x="219.4455" y="250.9267">Pagamento</text><line style="stroke:#E7E7E7;stroke-width:0.5;" x1="154.76" x2="331.2971" y1="262.08" y2="262.08"/><text fill="#FFFFFF" font-family="sans-serif" font-size="14" lengthAdjust="spacing" textLength="51.3516" x="159.76" y="279.0751">Long id</text><text fill="#FFFFFF" font-family="sans-serif" font-size="14" lengthAdjust="spacing" textLength="99.4629" x="159.76" y="295.372">Pedido pedido</text><text fill="#FFFFFF" font-family="sans-serif" font-size="14" lengthAdjust="spacing" textLength="99.9893" x="159.76" y="311.6689">String metodo</text><text fill="#FFFFFF" font-family="sans-serif" font-size="14" lengthAdjust="spacing" textLength="118.9932" x="159.76" y="327.9657">BigDecimal valor</text><text fill="#FFFFFF" font-family="sans-serif" font-size="14" lengthAdjust="spacing" textLength="89.25" x="159.76" y="344.2626">String status</text><text fill="#FFFFFF" font-family="sans-serif" font-size="14" lengthAdjust="spacing" textLength="166.5371" x="159.76" y="360.5595">LocalDateTime pagoEm</text><line style="stroke:#E7E7E7;stroke-width:0.5;" x1="154.76" x2="331.2971" y1="367.8612" y2="367.8612"/></g><!--class Promocao--><g class="entity" data-qualified-name="Promocao" data-source-line="106" id="ent0015"><rect fill="#313139" height="129.4844" rx="2.5" ry="2.5" style="stroke:#E7E7E7;stroke-width:0.5;" width="186.9111" x="819.57" y="788.43"/><ellipse cx="873.8713" cy="804.43" fill="#2E5233" rx="11" ry="11" style="stroke:#E7E7E7;stroke-width:1;"/><path d="M876.84,810.0706 Q876.2619,810.3675 875.6213,810.5081 Q874.9806,810.6644 874.2775,810.6644 Q871.7775,810.6644 870.4494,809.0238 Q869.1369,807.3675 869.1369,804.2425 Q869.1369,801.1175 870.4494,799.4613 Q871.7775,797.805 874.2775,797.805 Q874.9806,797.805 875.6213,797.9613 Q876.2775,798.1175 876.84,798.4144 L876.84,801.1331 Q876.215,800.555 875.6213,800.2894 Q875.0275,800.0081 874.4025,800.0081 Q873.0588,800.0081 872.3713,801.0863 Q871.6838,802.1488 871.6838,804.2425 Q871.6838,806.3363 872.3713,807.4144 Q873.0588,808.4769 874.4025,808.4769 Q875.0275,808.4769 875.6213,808.2113 Q876.215,807.93 876.84,807.3519 L876.84,810.0706 Z " fill="#FFFFFF"/><text fill="#FFFFFF" font-family="sans-serif" font-size="14" lengthAdjust="spacing" textLength="69.8086" x="894.3713" y="809.2767">Promocao</text><line style="stroke:#E7E7E7;stroke-width:0.5;" x1="820.57" x2="1005.4811" y1="820.43" y2="820.43"/><text fill="#FFFFFF" font-family="sans-serif" font-size="14" lengthAdjust="spacing" textLength="51.3516" x="825.57" y="837.4251">Long id</text><text fill="#FFFFFF" font-family="sans-serif" font-size="14" lengthAdjust="spacing" textLength="92.7227" x="825.57" y="853.722">String codigo</text><text fill="#FFFFFF" font-family="sans-serif" font-size="14" lengthAdjust="spacing" textLength="113.21" x="825.57" y="870.0189">String descricao</text><text fill="#FFFFFF" font-family="sans-serif" font-size="14" lengthAdjust="spacing" textLength="147.9023" x="825.57" y="886.3157">BigDecimal desconto</text><text fill="#FFFFFF" font-family="sans-serif" font-size="14" lengthAdjust="spacing" textLength="174.9111" x="825.57" y="902.6126">LocalDateTime validoAte</text><line style="stroke:#E7E7E7;stroke-width:0.5;" x1="820.57" x2="1005.4811" y1="909.9144" y2="909.9144"/></g><!--class Avaliacao--><g class="entity" data-qualified-name="Avaliacao" data-source-line="114" id="ent0016"><rect fill="#313139" height="145.7813" rx="2.5" ry="2.5" style="stroke:#E7E7E7;stroke-width:0.5;" width="186.9932" x="566.53" y="15.15"/><ellipse cx="621.9558" cy="31.15" fill="#2E5233" rx="11" ry="11" style="stroke:#E7E7E7;stroke-width:1;"/><path d="M624.9245,36.7906 Q624.3464,37.0875 623.7058,37.2281 Q623.0652,37.3844 622.362,37.3844 Q619.862,37.3844 618.5339,35.7438 Q617.2214,34.0875 617.2214,30.9625 Q617.2214,27.8375 618.5339,26.1813 Q619.862,24.525 622.362,24.525 Q623.0652,24.525 623.7058,24.6813 Q624.362,24.8375 624.9245,25.1344 L624.9245,27.8531 Q624.2995,27.275 623.7058,27.0094 Q623.112,26.7281 622.487,26.7281 Q621.1433,26.7281 620.4558,27.8063 Q619.7683,28.8688 619.7683,30.9625 Q619.7683,33.0563 620.4558,34.1344 Q621.1433,35.1969 622.487,35.1969 Q623.112,35.1969 623.7058,34.9313 Q624.2995,34.65 624.9245,34.0719 L624.9245,36.7906 Z " fill="#FFFFFF"/><text fill="#FFFFFF" font-family="sans-serif" font-size="14" lengthAdjust="spacing" textLength="67.6416" x="642.4558" y="35.9967">Avaliacao</text><line style="stroke:#E7E7E7;stroke-width:0.5;" x1="567.53" x2="752.5232" y1="47.15" y2="47.15"/><text fill="#FFFFFF" font-family="sans-serif" font-size="14" lengthAdjust="spacing" textLength="51.3516" x="572.53" y="64.1451">Long id</text><text fill="#FFFFFF" font-family="sans-serif" font-size="14" lengthAdjust="spacing" textLength="100.6592" x="572.53" y="80.442">Cliente cliente</text><text fill="#FFFFFF" font-family="sans-serif" font-size="14" lengthAdjust="spacing" textLength="114.0508" x="572.53" y="96.7389">Produto produto</text><text fill="#FFFFFF" font-family="sans-serif" font-size="14" lengthAdjust="spacing" textLength="86.3174" x="572.53" y="113.0357">Integer nota</text><text fill="#FFFFFF" font-family="sans-serif" font-size="14" lengthAdjust="spacing" textLength="125.8975" x="572.53" y="129.3326">String comentario</text><text fill="#FFFFFF" font-family="sans-serif" font-size="14" lengthAdjust="spacing" textLength="174.9932" x="572.53" y="145.6295">LocalDateTime criadoEm</text><line style="stroke:#E7E7E7;stroke-width:0.5;" x1="567.53" x2="752.5232" y1="152.9313" y2="152.9313"/></g><!--class ProdutoRepository--><g class="entity" data-qualified-name="ProdutoRepository" data-source-line="124" id="ent0017"><rect fill="#313139" height="48" rx="2.5" ry="2.5" style="stroke:#E7E7E7;stroke-width:0.5;" width="161.6504" x="1573.2" y="614.24"/><ellipse cx="1588.2" cy="630.24" fill="#2E5233" rx="11" ry="11" style="stroke:#E7E7E7;stroke-width:1;"/><path d="M1591.1688,635.8806 Q1590.5906,636.1775 1589.95,636.3181 Q1589.3094,636.4744 1588.6063,636.4744 Q1586.1063,636.4744 1584.7781,634.8338 Q1583.4656,633.1775 1583.4656,630.0525 Q1583.4656,626.9275 1584.7781,625.2713 Q1586.1063,623.615 1588.6063,623.615 Q1589.3094,623.615 1589.95,623.7713 Q1590.6063,623.9275 1591.1688,624.2244 L1591.1688,626.9431 Q1590.5438,626.365 1589.95,626.0994 Q1589.3563,625.8181 1588.7313,625.8181 Q1587.3875,625.8181 1586.7,626.8963 Q1586.0125,627.9588 1586.0125,630.0525 Q1586.0125,632.1463 1586.7,633.2244 Q1587.3875,634.2869 1588.7313,634.2869 Q1589.3563,634.2869 1589.95,634.0213 Q1590.5438,633.74 1591.1688,633.1619 L1591.1688,635.8806 Z " fill="#FFFFFF"/><text fill="#FFFFFF" font-family="sans-serif" font-size="14" lengthAdjust="spacing" textLength="129.6504" x="1602.2" y="635.0867">ProdutoRepository</text><line style="stroke:#E7E7E7;stroke-width:0.5;" x1="1574.2" x2="1733.8504" y1="646.24" y2="646.24"/><line style="stroke:#E7E7E7;stroke-width:0.5;" x1="1574.2" x2="1733.8504" y1="654.24" y2="654.24"/></g><!--class ProdutoService--><g class="entity" data-qualified-name="ProdutoService" data-source-line="125" id="ent0018"><rect fill="#313139" height="48" rx="2.5" ry="2.5" style="stroke:#E7E7E7;stroke-width:0.5;" width="138.3193" x="1584.87" y="278.97"/><ellipse cx="1599.87" cy="294.97" fill="#2E5233" rx="11" ry="11" style="stroke:#E7E7E7;stroke-width:1;"/><path d="M1602.8388,300.6106 Q1602.2606,300.9075 1601.62,301.0481 Q1600.9794,301.2044 1600.2763,301.2044 Q1597.7763,301.2044 1596.4481,299.5638 Q1595.1356,297.9075 1595.1356,294.7825 Q1595.1356,291.6575 1596.4481,290.0013 Q1597.7763,288.345 1600.2763,288.345 Q1600.9794,288.345 1601.62,288.5013 Q1602.2763,288.6575 1602.8388,288.9544 L1602.8388,291.6731 Q1602.2138,291.095 1601.62,290.8294 Q1601.0263,290.5481 1600.4013,290.5481 Q1599.0575,290.5481 1598.37,291.6263 Q1597.6825,292.6888 1597.6825,294.7825 Q1597.6825,296.8763 1598.37,297.9544 Q1599.0575,299.0169 1600.4013,299.0169 Q1601.0263,299.0169 1601.62,298.7513 Q1602.2138,298.47 1602.8388,297.8919 L1602.8388,300.6106 Z " fill="#FFFFFF"/><text fill="#FFFFFF" font-family="sans-serif" font-size="14" lengthAdjust="spacing" textLength="106.3193" x="1613.87" y="299.8167">ProdutoService</text><line style="stroke:#E7E7E7;stroke-width:0.5;" x1="1585.87" x2="1722.1893" y1="310.97" y2="310.97"/><line style="stroke:#E7E7E7;stroke-width:0.5;" x1="1585.87" x2="1722.1893" y1="318.97" y2="318.97"/></g><!--class ProdutoController--><g class="entity" data-qualified-name="ProdutoController" data-source-line="126" id="ent0019"><rect fill="#313139" height="48" rx="2.5" ry="2.5" style="stroke:#E7E7E7;stroke-width:0.5;" width="155.751" x="1576.15" y="64.04"/><ellipse cx="1591.15" cy="80.04" fill="#2E5233" rx="11" ry="11" style="stroke:#E7E7E7;stroke-width:1;"/><path d="M1594.1188,85.6806 Q1593.5406,85.9775 1592.9,86.1181 Q1592.2594,86.2744 1591.5563,86.2744 Q1589.0563,86.2744 1587.7281,84.6337 Q1586.4156,82.9775 1586.4156,79.8525 Q1586.4156,76.7275 1587.7281,75.0712 Q1589.0563,73.415 1591.5563,73.415 Q1592.2594,73.415 1592.9,73.5712 Q1593.5563,73.7275 1594.1188,74.0244 L1594.1188,76.7431 Q1593.4938,76.165 1592.9,75.8994 Q1592.3063,75.6181 1591.6813,75.6181 Q1590.3375,75.6181 1589.65,76.6962 Q1588.9625,77.7587 1588.9625,79.8525 Q1588.9625,81.9462 1589.65,83.0244 Q1590.3375,84.0869 1591.6813,84.0869 Q1592.3063,84.0869 1592.9,83.8212 Q1593.4938,83.54 1594.1188,82.9619 L1594.1188,85.6806 Z " fill="#FFFFFF"/><text fill="#FFFFFF" font-family="sans-serif" font-size="14" lengthAdjust="spacing" textLength="123.751" x="1605.15" y="84.8867">ProdutoController</text><line style="stroke:#E7E7E7;stroke-width:0.5;" x1="1577.15" x2="1730.901" y1="96.04" y2="96.04"/><line style="stroke:#E7E7E7;stroke-width:0.5;" x1="1577.15" x2="1730.901" y1="104.04" y2="104.04"/></g><!--link ProdutoRemovido to Produto--><g class="link" data-entity-1="ent0003" data-entity-2="ent0002" data-link-type="dependency" data-source-line="129" id="lnk20"><path codeLine="129" d="M146.63,918.31 C157.37,935.43 170.87,952.57 187.03,964.91 C294.81,1047.22 447.9549,1078.9402 539.0649,1091.3502" fill="none" id="ProdutoRemovido-to-Produto" style="stroke:#E7E7E7;stroke-width:1;"/><polygon fill="#E7E7E7" points="545.01,1092.16,536.6322,1086.9819,540.0557,1091.4852,535.5525,1094.9087,545.01,1092.16" style="stroke:#E7E7E7;stroke-width:1;"/><text fill="#FFFFFF" font-family="sans-serif" font-size="13" lengthAdjust="spacing" textLength="63.1782" x="188.03" y="960.9769">produtoId</text></g><!--link Produto to Categoria--><g class="link" data-entity-1="ent0002" data-entity-2="ent0004" data-link-type="dependency" data-source-line="130" id="lnk21"><path codeLine="130" d="M616.03,1206.3 C616.03,1227.4 616.03,1242.58 616.03,1260.53" fill="none" id="Produto-to-Categoria" style="stroke:#E7E7E7;stroke-width:1;"/><polygon fill="#E7E7E7" points="616.03,1266.53,620.03,1257.53,616.03,1261.53,612.03,1257.53,616.03,1266.53" style="stroke:#E7E7E7;stroke-width:1;"/></g><!--link Cliente to Endereco--><g class="link" data-entity-1="ent0007" data-entity-2="ent0008" data-link-type="association" data-source-line="131" id="lnk22"><path codeLine="131" d="M572.94,367.84 C541.53,419.15 497.06,491.8 462.21,548.72" fill="none" id="Cliente-Endereco" style="stroke:#E7E7E7;stroke-width:1;"/><text fill="#FFFFFF" font-family="sans-serif" font-size="13" lengthAdjust="spacing" textLength="8.271" x="560.2426" y="387.8294">1</text><text fill="#FFFFFF" font-family="sans-serif" font-size="13" lengthAdjust="spacing" textLength="23.0356" x="442.6125" y="538.0611">0..*</text></g><!--link Cliente to Carrinho--><g class="link" data-entity-1="ent0007" data-entity-2="ent0009" data-link-type="association" data-source-line="132" id="lnk23"><path codeLine="132" d="M612.79,367.84 C613.54,429.64 614.65,522.39 615.36,581.35" fill="none" id="Cliente-Carrinho" style="stroke:#E7E7E7;stroke-width:1;"/><text fill="#FFFFFF" font-family="sans-serif" font-size="13" lengthAdjust="spacing" textLength="8.271" x="604.4512" y="387.8294">1</text><text fill="#FFFFFF" font-family="sans-serif" font-size="13" lengthAdjust="spacing" textLength="24.8066" x="589.865" y="570.5782">0..1</text></g><!--link Carrinho to ItemCarrinho--><g class="link" data-entity-1="ent0009" data-entity-2="ent0010" data-link-type="association" data-source-line="133" id="lnk24"><path codeLine="133" d="M616.03,695.18 C616.03,726.36 616.03,765.05 616.03,796.23" fill="none" id="Carrinho-ItemCarrinho" style="stroke:#E7E7E7;stroke-width:1;"/><text fill="#FFFFFF" font-family="sans-serif" font-size="13" lengthAdjust="spacing" textLength="8.271" x="607.5832" y="714.7062">1</text><text fill="#FFFFFF" font-family="sans-serif" font-size="13" lengthAdjust="spacing" textLength="23.0356" x="591.6313" y="785.4521">0..*</text></g><!--link ItemCarrinho to Produto--><g class="link" data-entity-1="ent0010" data-entity-2="ent0002" data-link-type="dependency" data-source-line="134" id="lnk25"><path codeLine="134" d="M616.03,910.12 C616.03,935.14 616.03,959.48 616.03,988.48" fill="none" id="ItemCarrinho-to-Produto" style="stroke:#E7E7E7;stroke-width:1;"/><polygon fill="#E7E7E7" points="616.03,994.48,620.03,985.48,616.03,989.48,612.03,985.48,616.03,994.48" style="stroke:#E7E7E7;stroke-width:1;"/></g><!--link Pedido to ItemPedido--><g class="link" data-entity-1="ent0011" data-entity-2="ent0013" data-link-type="association" data-source-line="135" id="lnk26"><path codeLine="135" d="M248.59,130.59 C205.49,153.09 160.42,185.58 136.03,230.08 C104.89,286.9 117.78,313.7 136.03,375.86 C139.01,386.03 143.62,396.14 148.93,405.65" fill="none" id="Pedido-ItemPedido" style="stroke:#E7E7E7;stroke-width:1;"/><text fill="#FFFFFF" font-family="sans-serif" font-size="13" lengthAdjust="spacing" textLength="8.271" x="232.6936" y="130.1261">1</text><text fill="#FFFFFF" font-family="sans-serif" font-size="13" lengthAdjust="spacing" textLength="23.0356" x="119.3993" y="394.888">0..*</text></g><!--link ItemPedido to Produto--><g class="link" data-entity-1="ent0013" data-entity-2="ent0002" data-link-type="dependency" data-source-line="136" id="lnk27"><path codeLine="136" d="M212.09,519.37 C233.86,574.27 270.57,659.45 313.03,727.43 C381.85,837.63 475.2757,947.2088 540.9157,1019.4688" fill="none" id="ItemPedido-to-Produto" style="stroke:#E7E7E7;stroke-width:1;"/><polygon fill="#E7E7E7" points="544.95,1023.91,541.8593,1014.5587,541.5881,1020.209,535.9377,1019.9378,544.95,1023.91" style="stroke:#E7E7E7;stroke-width:1;"/></g><!--link Pedido to Cliente--><g class="link" data-entity-1="ent0011" data-entity-2="ent0007" data-link-type="dependency" data-source-line="137" id="lnk28"><path codeLine="137" d="M453.43,169.54 C480.51,192.15 504.9738,212.5852 530.7438,234.0952" fill="none" id="Pedido-to-Cliente" style="stroke:#E7E7E7;stroke-width:1;"/><polygon fill="#E7E7E7" points="535.35,237.94,531.0038,229.102,531.5115,234.736,525.8774,235.2436,535.35,237.94" style="stroke:#E7E7E7;stroke-width:1;"/></g><!--link Pedido to Pagamento--><g class="link" data-entity-1="ent0011" data-entity-2="ent0014" data-link-type="dependency" data-source-line="138" id="lnk29"><path codeLine="138" d="M313.93,169.54 C303.34,189.33 294.893,205.101 284.523,224.461" fill="none" id="Pedido-to-Pagamento" style="stroke:#E7E7E7;stroke-width:1;"/><polygon fill="#E7E7E7" points="281.69,229.75,289.4656,223.7051,284.0509,225.3425,282.4135,219.9278,281.69,229.75" style="stroke:#E7E7E7;stroke-width:1;"/></g><!--link Pedido to Endereco--><g class="link" data-entity-1="ent0011" data-entity-2="ent0008" data-link-type="dependency" data-source-line="139" id="lnk30"><path codeLine="139" d="M364.5,169.34 C373.92,270.61 389.504,438.1458 399.264,543.0258" fill="none" id="Pedido-to-Endereco" style="stroke:#E7E7E7;stroke-width:1;"/><polygon fill="#E7E7E7" points="399.82,549,402.9689,539.6681,399.3567,544.0215,395.0033,540.4094,399.82,549" style="stroke:#E7E7E7;stroke-width:1;"/><text fill="#FFFFFF" font-family="sans-serif" font-size="13" lengthAdjust="spacing" textLength="71.7729" x="385.03" y="307.5369">entregaEm</text></g><!--link Promocao to Produto--><g class="link" data-entity-1="ent0015" data-entity-2="ent0002" data-link-type="association" data-source-line="140" id="lnk31"><path codeLine="140" d="M845.82,918.28 C828.88,933.86 810.52,950.25 793.03,964.91 C759.01,993.42 719.84,1023.45 687.01,1047.89" fill="none" id="Promocao-Produto" style="stroke:#E7E7E7;stroke-width:1;"/><text fill="#FFFFFF" font-family="sans-serif" font-size="13" lengthAdjust="spacing" textLength="23.0356" x="814.7053" y="937.8414">0..*</text><text fill="#FFFFFF" font-family="sans-serif" font-size="13" lengthAdjust="spacing" textLength="23.0356" x="694.6157" y="1039.4314">0..*</text></g><!--link Avaliacao to Produto--><g class="link" data-entity-1="ent0016" data-entity-2="ent0002" data-link-type="dependency" data-source-line="141" id="lnk32"><path codeLine="141" d="M716.97,161.02 C742.53,200.36 767.03,251.29 767.03,301.97 C767.03,301.97 767.03,301.97 767.03,854.17 C767.03,920.67 730.1711,979.7014 691.0111,1025.4614" fill="none" id="Avaliacao-to-Produto" style="stroke:#E7E7E7;stroke-width:1;"/><polygon fill="#E7E7E7" points="687.11,1030.02,696.0008,1025.7828,690.3609,1026.2211,689.9226,1020.5813,687.11,1030.02" style="stroke:#E7E7E7;stroke-width:1;"/></g><!--link Avaliacao to Cliente--><g class="link" data-entity-1="ent0016" data-entity-2="ent0007" data-link-type="dependency" data-source-line="142" id="lnk33"><path codeLine="142" d="M643.71,161.43 C638.11,186.26 633.2101,208.017 627.7701,232.137" fill="none" id="Avaliacao-to-Cliente" style="stroke:#E7E7E7;stroke-width:1;"/><polygon fill="#E7E7E7" points="626.45,237.99,632.3321,230.0906,627.5501,233.1125,624.5281,228.3305,626.45,237.99" style="stroke:#E7E7E7;stroke-width:1;"/></g><!--link Usuario to Role--><g class="link" data-entity-1="ent0005" data-entity-2="ent0006" data-link-type="association" data-source-line="143" id="lnk34"><path codeLine="143" d="M869.03,161.43 C869.03,195.19 869.03,234.05 869.03,262.35" fill="none" id="Usuario-Role" style="stroke:#E7E7E7;stroke-width:1;"/><text fill="#FFFFFF" font-family="sans-serif" font-size="13" lengthAdjust="spacing" textLength="8.271" x="860.6742" y="180.96">1</text><text fill="#FFFFFF" font-family="sans-serif" font-size="13" lengthAdjust="spacing" textLength="23.0356" x="844.2" y="251.7573">0..*</text></g><!--link ProdutoController to ProdutoService--><g class="link" data-entity-1="ent0019" data-entity-2="ent0018" data-link-type="dependency" data-source-line="146" id="lnk35"><path codeLine="146" d="M1654.03,112.24 C1654.03,153.09 1654.03,231.43 1654.03,272.48" fill="none" id="ProdutoController-to-ProdutoService" style="stroke:#E7E7E7;stroke-width:1;"/><polygon fill="#E7E7E7" points="1654.03,278.48,1658.03,269.48,1654.03,273.48,1650.03,269.48,1654.03,278.48" style="stroke:#E7E7E7;stroke-width:1;"/></g><!--link ProdutoService to ProdutoRepository--><g class="link" data-entity-1="ent0018" data-entity-2="ent0017" data-link-type="dependency" data-source-line="147" id="lnk36"><path codeLine="147" d="M1654.03,327.41 C1654.03,388.6 1654.03,546.67 1654.03,607.83" fill="none" id="ProdutoService-to-ProdutoRepository" style="stroke:#E7E7E7;stroke-width:1;"/><polygon fill="#E7E7E7" points="1654.03,613.83,1658.03,604.83,1654.03,608.83,1650.03,604.83,1654.03,613.83" style="stroke:#E7E7E7;stroke-width:1;"/></g><?plantuml-src bLLBRjim4Dth58GtITeaRRT1O42rrTP0uXXol2ucqaGX88aAIHbeYvwcYnoWw0byiGubKI8jEsWt4cSudpTVdh2er3o551Mh92yJNW5NGPA3KcmbHLfhmNu4ZDs8CcCyfTDQarp6Ib4WKHzvDiU45v2JFYPY422JYUG96DQ343b2oK3phR3M4j2O2SbXOSmkIg9GCbHQFDV6zDiCzI8zFUkEItBO4geZMaTdmS_01nnZ8ROytGVUdAfMPB4NIQSvC0lHGqqWdnFKUruWIq63CM_2wjtER22lPcgKbbv_esgG_4YUQuMo1DU2ml89Zfd70dXkIDJNCILzoYHzrU3CC5_1EGILSwII_4j8lS-Mr9ZZeoYDm0rN-ZegKpIjCMNOdHmuzlAm7rcxWTO5IgT4YIYg70j2wJ0VW4jFg6bkXyRA0Quqf5uX9V6Vzi7OL2JjtyQrq5XOZIdZ6alb3uGM6l9JfpzTZJqVTjQglX7jG3pNq8seRrtL3oC7Aqp7VVyA_5R-E7W3h15PQz2rOghvZQQ26fho61MZ2vA6d7zlBmabKWrzYmRgAbhEe-LzTCvcTyjFY_WsdD-TirKShS8uN9fp-7KMtYwMN-X8Wd7qUME4m-KikY5PFy47S_3_wMsssQRaseocas78e6cvVGUjrwhvEMi4jMXen_8MSY6TSJwSqmgoBcdzRclMpk51IKJAioFBrt5jsAAT5zyROIBSeNOMG6XuCFOuRgVZoIsfYRo19OqcdqSxYDoVi1WheRZU_IPHnP0sdjpotGkTJoLIOPGnitlP_H9CSLe2_952JU5i_nbeh0ZvpUUlZRK4VUQCqaARCaVP0iYD_J-qEFVVb8kBQH_mbVESM9wvxn-4m2Phyc52Dspo_lBopQHVUeUkwMHNHD3l2b_TNIE1jrCSS47NaMFLzY9mPkM0MXD6Ls5NohQ_o-nt-1LjU2qn0ofatw-Tvm63zJGqcElVvre8zedqep5lcIdNslR7kwGlOr-veRAk7zi4FkbA3Etp5m00?></g></svg>