<?plantuml 1.2026.2beta2?><svg xmlns="http://www.w3.org/2000/svg" xmlns:xlink="http://www.w3.org/1999/xlink" contentStyleType="text/css" data-diagram-type="CLASS" height="795px" preserveAspectRatio="none" style="width:672px;height:795px;background:#FFFFFF;" version="1.1" viewBox="0 0 672 795" width="672px" zoomAndPan="magnify"><defs/><g><!--class User--><g class="entity" data-qualified-name="User" data-source-line="5" id="ent0002"><rect fill="#F1F1F1" height="145.7813" rx="2.5" ry="2.5" style="stroke:#181818;stroke-width:0.5;" width="171.9473" x="308.29" y="7"/><ellipse cx="374.0586" cy="23" fill="#C2C2C2" rx="11" ry="11" style="stroke:#181818;stroke-width:1;"/><path d="M377.0273,28.6406 Q376.4492,28.9375 375.8086,29.0781 Q375.1679,29.2344 374.4648,29.2344 Q371.9648,29.2344 370.6367,27.5938 Q369.3242,25.9375 369.3242,22.8125 Q369.3242,19.6875 370.6367,18.0313 Q371.9648,16.375 374.4648,16.375 Q375.1679,16.375 375.8086,16.5313 Q376.4648,16.6875 377.0273,16.9844 L377.0273,19.7031 Q376.4023,19.125 375.8086,18.8594 Q375.2148,18.5781 374.5898,18.5781 Q373.2461,18.5781 372.5586,19.6563 Q371.8711,20.7188 371.8711,22.8125 Q371.8711,24.9063 372.5586,25.9844 Q373.2461,27.0469 374.5898,27.0469 Q375.2148,27.0469 375.8086,26.7813 Q376.4023,26.5 377.0273,25.9219 L377.0273,28.6406 Z " fill="#000000"/><text fill="#000000" font-family="sans-serif" font-size="14" lengthAdjust="spacing" textLength="31.9102" x="394.5586" y="27.8467">User</text><line style="stroke:#181818;stroke-width:0.5;" x1="309.29" x2="479.2373" y1="39" y2="39"/><text fill="#000000" font-family="sans-serif" font-size="14" lengthAdjust="spacing" textLength="63.082" x="314.29" y="55.9951">+Long id</text><text fill="#000000" font-family="sans-serif" font-size="14" lengthAdjust="spacing" textLength="97.665" x="314.29" y="72.292">+String name</text><text fill="#000000" font-family="sans-serif" font-size="14" lengthAdjust="spacing" textLength="96.5713" x="314.29" y="88.5889">+String email</text><text fill="#000000" font-family="sans-serif" font-size="14" lengthAdjust="spacing" textLength="159.9473" x="314.29" y="104.8857">+String passwordHash</text><text fill="#000000" font-family="sans-serif" font-size="14" lengthAdjust="spacing" textLength="73.8008" x="314.29" y="121.1826">+Role role</text><text fill="#000000" font-family="sans-serif" font-size="14" lengthAdjust="spacing" textLength="114.707" x="314.29" y="137.4795">+boolean active</text><line style="stroke:#181818;stroke-width:0.5;" x1="309.29" x2="479.2373" y1="144.7813" y2="144.7813"/></g><!--class Role--><g class="entity" data-qualified-name="Role" data-source-line="14" id="ent0003"><rect fill="#F1F1F1" height="80.5938" rx="2.5" ry="2.5" style="stroke:#181818;stroke-width:0.5;" width="91.1328" x="30.7" y="39.59"/><ellipse cx="58.4516" cy="55.59" fill="#ABABAB" rx="11" ry="11" style="stroke:#181818;stroke-width:1;"/><path d="M62.561,61.59 L54.8422,61.59 L54.8422,49.1994 L62.561,49.1994 L62.561,51.3556 L57.2954,51.3556 L57.2954,54.0275 L62.061,54.0275 L62.061,56.1837 L57.2954,56.1837 L57.2954,59.4337 L62.561,59.4337 L62.561,61.59 Z " fill="#000000"/><text fill="#000000" font-family="sans-serif" font-size="14" lengthAdjust="spacing" textLength="30.7959" x="75.2853" y="60.4367">Role</text><line style="stroke:#181818;stroke-width:0.5;" x1="31.7" x2="120.8328" y1="71.59" y2="71.59"/><text fill="#000000" font-family="sans-serif" font-size="14" lengthAdjust="spacing" textLength="79.1328" x="36.7" y="88.5851">CUSTOMER</text><text fill="#000000" font-family="sans-serif" font-size="14" lengthAdjust="spacing" textLength="47.0381" x="36.7" y="104.882">ADMIN</text><line style="stroke:#181818;stroke-width:0.5;" x1="31.7" x2="120.8328" y1="112.1837" y2="112.1837"/></g><!--class Category--><g class="entity" data-qualified-name="Category" data-source-line="19" id="ent0004"><rect fill="#F1F1F1" height="96.8906" rx="2.5" ry="2.5" style="stroke:#181818;stroke-width:0.5;" width="147.8027" x="517.36" y="460.71"/><ellipse cx="555.6936" cy="476.71" fill="#C2C2C2" rx="11" ry="11" style="stroke:#181818;stroke-width:1;"/><path d="M558.6624,482.3506 Q558.0843,482.6475 557.4436,482.7881 Q556.803,482.9444 556.0999,482.9444 Q553.5999,482.9444 552.2718,481.3038 Q550.9593,479.6475 550.9593,476.5225 Q550.9593,473.3975 552.2718,471.7413 Q553.5999,470.085 556.0999,470.085 Q556.803,470.085 557.4436,470.2413 Q558.0999,470.3975 558.6624,470.6944 L558.6624,473.4131 Q558.0374,472.835 557.4436,472.5694 Q556.8499,472.2881 556.2249,472.2881 Q554.8811,472.2881 554.1936,473.3663 Q553.5061,474.4288 553.5061,476.5225 Q553.5061,478.6163 554.1936,479.6944 Q554.8811,480.7569 556.2249,480.7569 Q556.8499,480.7569 557.4436,480.4913 Q558.0374,480.21 558.6624,479.6319 L558.6624,482.3506 Z " fill="#000000"/><text fill="#000000" font-family="sans-serif" font-size="14" lengthAdjust="spacing" textLength="63.9502" x="574.8789" y="481.5567">Category</text><line style="stroke:#181818;stroke-width:0.5;" x1="518.36" x2="664.1627" y1="492.71" y2="492.71"/><text fill="#000000" font-family="sans-serif" font-size="14" lengthAdjust="spacing" textLength="63.082" x="523.36" y="509.7051">+Long id</text><text fill="#000000" font-family="sans-serif" font-size="14" lengthAdjust="spacing" textLength="97.665" x="523.36" y="526.002">+String name</text><text fill="#000000" font-family="sans-serif" font-size="14" lengthAdjust="spacing" textLength="135.8027" x="523.36" y="542.2989">+String description</text><line style="stroke:#181818;stroke-width:0.5;" x1="518.36" x2="664.1627" y1="549.6006" y2="549.6006"/></g><!--class MenuItem--><g class="entity" data-qualified-name="MenuItem" data-source-line="25" id="ent0005"><rect fill="#F1F1F1" height="145.7813" rx="2.5" ry="2.5" style="stroke:#181818;stroke-width:0.5;" width="147.8027" x="419.36" y="642.75"/><ellipse cx="454.8328" cy="658.75" fill="#C2C2C2" rx="11" ry="11" style="stroke:#181818;stroke-width:1;"/><path d="M457.8016,664.3906 Q457.2234,664.6875 456.5828,664.8281 Q455.9422,664.9844 455.2391,664.9844 Q452.7391,664.9844 451.4109,663.3438 Q450.0984,661.6875 450.0984,658.5625 Q450.0984,655.4375 451.4109,653.7813 Q452.7391,652.125 455.2391,652.125 Q455.9422,652.125 456.5828,652.2813 Q457.2391,652.4375 457.8016,652.7344 L457.8016,655.4531 Q457.1766,654.875 456.5828,654.6094 Q455.9891,654.3281 455.3641,654.3281 Q454.0203,654.3281 453.3328,655.4063 Q452.6453,656.4688 452.6453,658.5625 Q452.6453,660.6563 453.3328,661.7344 Q454.0203,662.7969 455.3641,662.7969 Q455.9891,662.7969 456.5828,662.5313 Q457.1766,662.25 457.8016,661.6719 L457.8016,664.3906 Z " fill="#000000"/><text fill="#000000" font-family="sans-serif" font-size="14" lengthAdjust="spacing" textLength="70.3076" x="473.3823" y="663.5967">MenuItem</text><line style="stroke:#181818;stroke-width:0.5;" x1="420.36" x2="566.1627" y1="674.75" y2="674.75"/><text fill="#000000" font-family="sans-serif" font-size="14" lengthAdjust="spacing" textLength="63.082" x="425.36" y="691.7451">+Long id</text><text fill="#000000" font-family="sans-serif" font-size="14" lengthAdjust="spacing" textLength="97.665" x="425.36" y="708.042">+String name</text><text fill="#000000" font-family="sans-serif" font-size="14" lengthAdjust="spacing" textLength="135.8027" x="425.36" y="724.3389">+String description</text><text fill="#000000" font-family="sans-serif" font-size="14" lengthAdjust="spacing" textLength="130.4912" x="425.36" y="740.6357">+BigDecimal price</text><text fill="#000000" font-family="sans-serif" font-size="14" lengthAdjust="spacing" textLength="121.4609" x="425.36" y="756.9326">+String imageUrl</text><text fill="#000000" font-family="sans-serif" font-size="14" lengthAdjust="spacing" textLength="135.3447" x="425.36" y="773.2295">+boolean available</text><line style="stroke:#181818;stroke-width:0.5;" x1="420.36" x2="566.1627" y1="780.5313" y2="780.5313"/></g><!--class Order--><g class="entity" data-qualified-name="Order" data-source-line="34" id="ent0006"><rect fill="#F1F1F1" height="145.7813" rx="2.5" ry="2.5" style="stroke:#181818;stroke-width:0.5;" width="241.6875" x="273.42" y="229.78"/><ellipse cx="369.9981" cy="245.78" fill="#C2C2C2" rx="11" ry="11" style="stroke:#181818;stroke-width:1;"/><path d="M372.9669,251.4206 Q372.3888,251.7175 371.7481,251.8581 Q371.1075,252.0144 370.4044,252.0144 Q367.9044,252.0144 366.5763,250.3737 Q365.2638,248.7175 365.2638,245.5925 Q365.2638,242.4675 366.5763,240.8112 Q367.9044,239.155 370.4044,239.155 Q371.1075,239.155 371.7481,239.3112 Q372.4044,239.4675 372.9669,239.7644 L372.9669,242.4831 Q372.3419,241.905 371.7481,241.6394 Q371.1544,241.3581 370.5294,241.3581 Q369.1856,241.3581 368.4981,242.4362 Q367.8106,243.4987 367.8106,245.5925 Q367.8106,247.6862 368.4981,248.7644 Q369.1856,249.8269 370.5294,249.8269 Q371.1544,249.8269 371.7481,249.5612 Q372.3419,249.28 372.9669,248.7019 L372.9669,251.4206 Z " fill="#000000"/><text fill="#000000" font-family="sans-serif" font-size="14" lengthAdjust="spacing" textLength="40.0313" x="390.4981" y="250.6267">Order</text><line style="stroke:#181818;stroke-width:0.5;" x1="274.42" x2="514.1075" y1="261.78" y2="261.78"/><text fill="#000000" font-family="sans-serif" font-size="14" lengthAdjust="spacing" textLength="63.082" x="279.42" y="278.7751">+Long id</text><text fill="#000000" font-family="sans-serif" font-size="14" lengthAdjust="spacing" textLength="189.5674" x="279.42" y="295.072">+LocalDateTime createdAt</text><text fill="#000000" font-family="sans-serif" font-size="14" lengthAdjust="spacing" textLength="143.8418" x="279.42" y="311.3689">+OrderStatus status</text><text fill="#000000" font-family="sans-serif" font-size="14" lengthAdjust="spacing" textLength="127.6611" x="279.42" y="327.6657">+BigDecimal total</text><text fill="#000000" font-family="sans-serif" font-size="14" lengthAdjust="spacing" textLength="170.4883" x="279.42" y="343.9626">+String deliveryAddress</text><text fill="#000000" font-family="sans-serif" font-size="14" lengthAdjust="spacing" textLength="229.6875" x="279.42" y="360.2595">+PaymentStatus paymentStatus</text><line style="stroke:#181818;stroke-width:0.5;" x1="274.42" x2="514.1075" y1="367.5613" y2="367.5613"/></g><!--class OrderStatus--><g class="entity" data-qualified-name="OrderStatus" data-source-line="43" id="ent0007"><rect fill="#F1F1F1" height="145.7813" rx="2.5" ry="2.5" style="stroke:#181818;stroke-width:0.5;" width="116.6426" x="156.94" y="7"/><ellipse cx="171.94" cy="23" fill="#ABABAB" rx="11" ry="11" style="stroke:#181818;stroke-width:1;"/><path d="M176.0494,29 L168.3306,29 L168.3306,16.6094 L176.0494,16.6094 L176.0494,18.7656 L170.7838,18.7656 L170.7838,21.4375 L175.5494,21.4375 L175.5494,23.5938 L170.7838,23.5938 L170.7838,26.8438 L176.0494,26.8438 L176.0494,29 Z " fill="#000000"/><text fill="#000000" font-family="sans-serif" font-size="14" lengthAdjust="spacing" textLength="84.6426" x="185.94" y="27.8467">OrderStatus</text><line style="stroke:#181818;stroke-width:0.5;" x1="157.94" x2="272.5826" y1="39" y2="39"/><text fill="#000000" font-family="sans-serif" font-size="14" lengthAdjust="spacing" textLength="66.1035" x="162.94" y="55.9951">CREATED</text><text fill="#000000" font-family="sans-serif" font-size="14" lengthAdjust="spacing" textLength="84.8818" x="162.94" y="72.292">CONFIRMED</text><text fill="#000000" font-family="sans-serif" font-size="14" lengthAdjust="spacing" textLength="80.2129" x="162.94" y="88.5889">PREPARING</text><text fill="#000000" font-family="sans-serif" font-size="14" lengthAdjust="spacing" textLength="47.4824" x="162.94" y="104.8857">READY</text><text fill="#000000" font-family="sans-serif" font-size="14" lengthAdjust="spacing" textLength="79.3311" x="162.94" y="121.1826">DELIVERED</text><text fill="#000000" font-family="sans-serif" font-size="14" lengthAdjust="spacing" textLength="83.6719" x="162.94" y="137.4795">CANCELLED</text><line style="stroke:#181818;stroke-width:0.5;" x1="157.94" x2="272.5826" y1="144.7813" y2="144.7813"/></g><!--class PaymentStatus--><g class="entity" data-qualified-name="PaymentStatus" data-source-line="52" id="ent0008"><rect fill="#F1F1F1" height="96.8906" rx="2.5" ry="2.5" style="stroke:#181818;stroke-width:0.5;" width="138.5313" x="7" y="254.23"/><ellipse cx="22" cy="270.23" fill="#ABABAB" rx="11" ry="11" style="stroke:#181818;stroke-width:1;"/><path d="M26.1094,276.23 L18.3906,276.23 L18.3906,263.8394 L26.1094,263.8394 L26.1094,265.9956 L20.8438,265.9956 L20.8438,268.6675 L25.6094,268.6675 L25.6094,270.8238 L20.8438,270.8238 L20.8438,274.0738 L26.1094,274.0738 L26.1094,276.23 Z " fill="#000000"/><text fill="#000000" font-family="sans-serif" font-size="14" lengthAdjust="spacing" textLength="106.5313" x="36" y="275.0767">PaymentStatus</text><line style="stroke:#181818;stroke-width:0.5;" x1="8" x2="144.5313" y1="286.23" y2="286.23"/><text fill="#000000" font-family="sans-serif" font-size="14" lengthAdjust="spacing" textLength="63.9912" x="13" y="303.2251">PENDING</text><text fill="#000000" font-family="sans-serif" font-size="14" lengthAdjust="spacing" textLength="32.9287" x="13" y="319.522">PAID</text><text fill="#000000" font-family="sans-serif" font-size="14" lengthAdjust="spacing" textLength="49.1846" x="13" y="335.8189">FAILED</text><line style="stroke:#181818;stroke-width:0.5;" x1="8" x2="144.5313" y1="343.1206" y2="343.1206"/></g><!--class OrderItem--><g class="entity" data-qualified-name="OrderItem" data-source-line="58" id="ent0009"><rect fill="#F1F1F1" height="113.1875" rx="2.5" ry="2.5" style="stroke:#181818;stroke-width:0.5;" width="175.6387" x="306.45" y="452.56"/><ellipse cx="354.0691" cy="468.56" fill="#C2C2C2" rx="11" ry="11" style="stroke:#181818;stroke-width:1;"/><path d="M357.0379,474.2006 Q356.4598,474.4975 355.8191,474.6381 Q355.1785,474.7944 354.4754,474.7944 Q351.9754,474.7944 350.6473,473.1537 Q349.3348,471.4975 349.3348,468.3725 Q349.3348,465.2475 350.6473,463.5912 Q351.9754,461.935 354.4754,461.935 Q355.1785,461.935 355.8191,462.0912 Q356.4754,462.2475 357.0379,462.5444 L357.0379,465.2631 Q356.4129,464.685 355.8191,464.4194 Q355.2254,464.1381 354.6004,464.1381 Q353.2566,464.1381 352.5691,465.2162 Q351.8816,466.2787 351.8816,468.3725 Q351.8816,470.4662 352.5691,471.5444 Q353.2566,472.6069 354.6004,472.6069 Q355.2254,472.6069 355.8191,472.3412 Q356.4129,472.06 357.0379,471.4819 L357.0379,474.2006 Z " fill="#000000"/><text fill="#000000" font-family="sans-serif" font-size="14" lengthAdjust="spacing" textLength="71.9004" x="374.5691" y="473.4067">OrderItem</text><line style="stroke:#181818;stroke-width:0.5;" x1="307.45" x2="481.0887" y1="484.56" y2="484.56"/><text fill="#000000" font-family="sans-serif" font-size="14" lengthAdjust="spacing" textLength="63.082" x="312.45" y="501.5551">+Long id</text><text fill="#000000" font-family="sans-serif" font-size="14" lengthAdjust="spacing" textLength="92.7979" x="312.45" y="517.852">+int quantity</text><text fill="#000000" font-family="sans-serif" font-size="14" lengthAdjust="spacing" textLength="157.1719" x="312.45" y="534.1489">+BigDecimal unitPrice</text><line style="stroke:#181818;stroke-width:0.5;" x1="307.45" x2="481.0887" y1="541.4506" y2="541.4506"/><text fill="#000000" font-family="sans-serif" font-size="14" lengthAdjust="spacing" textLength="163.6387" x="312.45" y="558.4457">+BigDecimal subtotal()</text></g><!--link User to Order--><g class="link" data-entity-1="ent0002" data-entity-2="ent0006" data-link-type="association" data-source-line="66" id="lnk10"><path codeLine="66" d="M394.27,153.18 C394.27,177.7 394.27,205.09 394.27,229.59" fill="none" id="User-Order" style="stroke:#181818;stroke-width:1;"/><text fill="#000000" font-family="sans-serif" font-size="13" lengthAdjust="spacing" textLength="19.3667" x="395.27" y="195.8469">faz</text><text fill="#000000" font-family="sans-serif" font-size="13" lengthAdjust="spacing" textLength="8.271" x="385.9023" y="172.9535">1</text><text fill="#000000" font-family="sans-serif" font-size="13" lengthAdjust="spacing" textLength="23.0356" x="370.1403" y="218.7313">0..*</text></g><!--link Category to MenuItem--><g class="link" data-entity-1="ent0004" data-entity-2="ent0005" data-link-type="association" data-source-line="67" id="lnk11"><path codeLine="67" d="M568.29,558.1 C556.24,583.24 541.23,614.56 527.81,642.56" fill="none" id="Category-MenuItem" style="stroke:#181818;stroke-width:1;"/><text fill="#000000" font-family="sans-serif" font-size="13" lengthAdjust="spacing" textLength="49.0991" x="548.27" y="608.8169">cont&#233;m</text><text fill="#000000" font-family="sans-serif" font-size="13" lengthAdjust="spacing" textLength="8.271" x="556.6839" y="577.7606">1</text><text fill="#000000" font-family="sans-serif" font-size="13" lengthAdjust="spacing" textLength="23.0356" x="507.0806" y="631.7013">0..*</text></g><!--reverse link Order to OrderItem--><g class="link" data-entity-1="ent0006" data-entity-2="ent0009" data-link-type="composition" data-source-line="68" id="lnk12"><path codeLine="68" d="M394.27,388.05 C394.27,413.1 394.27,428.76 394.27,452.28" fill="none" id="Order-backto-OrderItem" style="stroke:#181818;stroke-width:1;"/><polygon fill="#181818" points="394.27,376.05,390.27,382.05,394.27,388.05,398.27,382.05,394.27,376.05" style="stroke:#181818;stroke-width:1;"/><text fill="#000000" font-family="sans-serif" font-size="13" lengthAdjust="spacing" textLength="41.6025" x="395.27" y="418.6269">possui</text><text fill="#000000" font-family="sans-serif" font-size="13" lengthAdjust="spacing" textLength="8.271" x="385.9143" y="395.5791">1</text><text fill="#000000" font-family="sans-serif" font-size="13" lengthAdjust="spacing" textLength="23.0356" x="369.8707" y="441.5094">1..*</text></g><!--link OrderItem to MenuItem--><g class="link" data-entity-1="ent0009" data-entity-2="ent0005" data-link-type="association" data-source-line="69" id="lnk13"><path codeLine="69" d="M421.32,566.03 C432.71,589.56 446.12,617.25 458.25,642.31" fill="none" id="OrderItem-MenuItem" style="stroke:#181818;stroke-width:1;"/><text fill="#000000" font-family="sans-serif" font-size="13" lengthAdjust="spacing" textLength="58.7222" x="445.27" y="608.8169">refere-se</text><text fill="#000000" font-family="sans-serif" font-size="13" lengthAdjust="spacing" textLength="6.5" x="418.2816" y="585.9508">*</text><text fill="#000000" font-family="sans-serif" font-size="13" lengthAdjust="spacing" textLength="8.271" x="446.5446" y="631.6791">1</text></g><?plantuml-src dLF1Rjim3BthAmHVjcL8qLnxys9tC-0uXfCCs96HsKIOB7cIt28Tza7xZltOA3jDxAA7OHVhaNnyf4d9VPUw1GiDRumsucXDWzpR3fcxHDmHQlCazO4_W7BZY53WNEozbVlEOoQCtiXdvBUCzH6-SsZvJyRvnznGkgm3t12T30qDZaniGAgHtLB-ax7r5t37uAwCGcxf4uoz8G2QW_3o4Talnb1t3UyveTnojzckLsb5C4vMMH4OGqTBy7WmzlIFNTNeX9MjbqPVDLPKBFFO_8S6UJ_9Gu92Dg1uQwKOCybvm9rLarzyfBd0Nk6r_jhMRumrDm9KGh-tbRH2OP5W7ViGwXCs7dpdkEkFLuruuq5DMbOqLtkAwzgYwzabd1hK_gpIZgtB_CTr-ZLKQRnDau3MnNrMhNfSLcaPLrdncJ0Haczq9ccUVKshWHiNopJF2R_eJci7vJ8jaa6XZBEGT1zdvupHZDvSajIU_-X0U-bFhyRGQUdBbvsC_AxRznDw_o4KUCShL21edH2wCexrrpnQH7m-vz7jpSqiEk_eZbxCCxlSkIdbSetkE3qS_-TtmuQiG9i5tk8gTIQsnhbEigihcWsIYucUnGUqE7Vu5m00?></g></svg>
